<svg width="14" height="16" viewBox="0 0 14 16" fill="none" xmlns="http://www.w3.org/2000/svg">
<path d="M4.86243 8.71274H9.13742M4.86243 11.5627H6.99992M1.29993 2.30024V13.7002C1.29993 14.0782 1.45006 14.4406 1.7173 14.7079C1.98454 14.9751 2.34699 15.1252 2.72493 15.1252H11.2749C11.6529 15.1252 12.0153 14.9751 12.2825 14.7079C12.5498 14.4406 12.6999 14.0782 12.6999 13.7002V5.39392C12.6999 5.20408 12.6619 5.01616 12.5883 4.84119C12.5146 4.66623 12.4068 4.50774 12.271 4.37504L9.1075 1.28137C8.84128 1.02106 8.48376 0.87529 8.11142 0.875244H2.72493C2.34699 0.875244 1.98454 1.02538 1.7173 1.29262C1.45006 1.55986 1.29993 1.92231 1.29993 2.30024Z" stroke="#098B05" stroke-width="1.5" stroke-linecap="round" stroke-linejoin="round"/>
<path d="M8.42493 0.875244V3.72524C8.42493 4.10318 8.57506 4.46563 8.8423 4.73287C9.10954 5.00011 9.47199 5.15024 9.84993 5.15024H12.6999" stroke="#098B05" stroke-width="1.5" stroke-linejoin="round"/>
</svg>
