<svg width="20" height="20" viewBox="0 0 20 20" fill="none" xmlns="http://www.w3.org/2000/svg">
<g clip-path="url(#clip0_2555_52)">
<path d="M16.6667 11.6667C16.8791 11.6669 17.0834 11.7483 17.2378 11.8941C17.3922 12.0399 17.4852 12.2392 17.4976 12.4512C17.5101 12.6632 17.4411 12.872 17.3048 13.0349C17.1684 13.1978 16.9751 13.3025 16.7642 13.3275L16.6667 13.3334H5.34499L7.25583 15.2442C7.40528 15.3942 7.49205 15.5954 7.49852 15.807C7.50498 16.0187 7.43065 16.2248 7.29062 16.3836C7.15059 16.5424 6.95537 16.642 6.7446 16.662C6.53383 16.6821 6.32332 16.6212 6.15583 16.4917L6.07749 16.4225L2.88583 13.2309C2.33166 12.6775 2.68666 11.745 3.43833 11.6717L3.53416 11.6667H16.6667ZM12.7442 3.57755C12.8877 3.43407 13.0786 3.34787 13.2811 3.33514C13.4836 3.32241 13.6838 3.384 13.8442 3.50838L13.9225 3.57755L17.1142 6.76921C17.6683 7.32255 17.3133 8.25505 16.5617 8.32838L16.4658 8.33338H3.33333C3.12093 8.33314 2.91663 8.25181 2.76219 8.10601C2.60774 7.9602 2.5148 7.76092 2.50235 7.54888C2.4899 7.33685 2.55889 7.12806 2.69521 6.96519C2.83154 6.80231 3.02491 6.69763 3.23583 6.67255L3.33333 6.66671H14.655L12.7442 4.75588C12.5879 4.59961 12.5002 4.38768 12.5002 4.16671C12.5002 3.94574 12.5879 3.73382 12.7442 3.57755Z" fill="white"/>
</g>
<defs>
<clipPath id="clip0_2555_52">
<rect width="20" height="20" fill="white"/>
</clipPath>
</defs>
</svg>
