<svg width="20" height="20" viewBox="0 0 20 20" fill="none" xmlns="http://www.w3.org/2000/svg">
<path fill-rule="evenodd" clip-rule="evenodd" d="M12.0833 2.2915C12.0833 2.12574 12.1492 1.96677 12.2664 1.84956C12.3836 1.73235 12.5426 1.6665 12.7083 1.6665H17.7083C17.8741 1.6665 18.0331 1.73235 18.1503 1.84956C18.2675 1.96677 18.3333 2.12574 18.3333 2.2915V7.2915C18.3333 7.45726 18.2675 7.61623 18.1503 7.73344C18.0331 7.85066 17.8741 7.9165 17.7083 7.9165C17.5426 7.9165 17.3836 7.85066 17.2664 7.73344C17.1492 7.61623 17.0833 7.45726 17.0833 7.2915V3.79984L11.4833 9.39984C11.4261 9.46124 11.3571 9.51049 11.2804 9.54465C11.2038 9.57881 11.121 9.59718 11.0371 9.59866C10.9532 9.60014 10.8698 9.58471 10.792 9.55327C10.7142 9.52184 10.6435 9.47505 10.5841 9.4157C10.5248 9.35635 10.478 9.28566 10.4466 9.20783C10.4151 9.13001 10.3997 9.04665 10.4012 8.96273C10.4026 8.87882 10.421 8.79605 10.4552 8.71939C10.4893 8.64272 10.5386 8.57372 10.6 8.5165L16.2 2.9165H12.7083C12.5426 2.9165 12.3836 2.85066 12.2664 2.73345C12.1492 2.61624 12.0833 2.45726 12.0833 2.2915Z" fill="white"/>
<path d="M9.37502 2.2915C4.77252 2.2915 1.04169 6.02234 1.04169 10.6248C1.04169 15.2273 4.77252 18.9582 9.37502 18.9582C13.9775 18.9582 17.7084 15.2273 17.7084 10.6248C17.7084 10.1257 17.6642 9.63734 17.58 9.16234C17.106 9.12982 16.6621 8.91857 16.3378 8.5713C16.0136 8.22402 15.8333 7.76661 15.8334 7.2915V6.81817L12.3675 10.284C12.0159 10.6356 11.539 10.8332 11.0417 10.8332C10.5444 10.8332 10.0675 10.6356 9.71585 10.284C9.36422 9.93237 9.16667 9.45545 9.16667 8.95817C9.16667 8.46089 9.36422 7.98397 9.71585 7.63234L13.1817 4.1665H12.7084C12.2332 4.16656 11.7758 3.98626 11.4286 3.66203C11.0813 3.3378 10.87 2.89383 10.8375 2.41984C10.3547 2.33433 9.86534 2.29138 9.37502 2.2915Z" fill="white"/>
</svg>
